<?xml version="1.0" encoding="UTF-8" standalone="no"?>
<!-- Created with Inkscape (http://www.inkscape.org/) -->

<svg
   width="72"
   height="24"
   viewBox="0 0 72 24"
   version="1.1"
   id="svg1"
   xmlns="http://www.w3.org/2000/svg"
   xmlns:svg="http://www.w3.org/2000/svg">
  <defs
     id="defs1" />
  <g
     id="layer1"
     style="display:none">
    <path
       style="fill:none;stroke:#000000;stroke-width:2;stroke-linecap:round;stroke-linejoin:round;stroke-opacity:1;paint-order:stroke fill markers"
       d="m 3,21 v 7"
       id="path1" />
    <path
       style="fill:none;stroke:#000000;stroke-width:2;stroke-linecap:round;stroke-linejoin:round;stroke-opacity:1;paint-order:stroke fill markers"
       d="M 9,28 V 21"
       id="path3" />
    <circle
       style="fill:none;stroke:#000000;stroke-width:2;stroke-linecap:round;stroke-linejoin:round;stroke-opacity:1;paint-order:stroke fill markers"
       id="path4"
       cy="24"
       cx="15"
       r="3" />
    <path
       style="fill:none;stroke:#000000;stroke-width:2;stroke-linecap:round;stroke-linejoin:round;stroke-opacity:1;paint-order:stroke fill markers"
       d="m 21,21 6,6"
       id="path5" />
    <path
       style="fill:none;stroke:#000000;stroke-width:2;stroke-linecap:round;stroke-linejoin:round;stroke-opacity:1;paint-order:stroke fill markers"
       d="m 21,27 6,-6"
       id="path6" />
    <circle
       style="fill:none;stroke:#000000;stroke-width:2;stroke-linecap:round;stroke-linejoin:round;stroke-opacity:1;paint-order:stroke fill markers"
       id="path7"
       cx="33"
       cy="24"
       r="3" />
    <path
       style="fill:none;stroke:#000000;stroke-width:2;stroke-linecap:round;stroke-linejoin:round;stroke-opacity:1;paint-order:stroke fill markers"
       d="m 39,21 v 7"
       id="path8" />
    <path
       style="fill:none;stroke:#000000;stroke-width:2;stroke-linecap:round;stroke-linejoin:round;stroke-opacity:1;paint-order:stroke fill markers"
       d="M 45,28 V 21"
       id="path10" />
  </g>
  <path
     id="path18"
     style="color:#000000;display:inline;fill:#55a097;fill-opacity:1;stroke-linecap:round;stroke-linejoin:round;-inkscape-stroke:none;paint-order:stroke fill markers"
     d="m 15,9 a 1,1 0 0 0 -1,1 v 7 c 0,1.427457 0.763787,2.751115 2,3.464844 1.236214,0.713728 2.763787,0.713728 4,0 C 21.236214,19.751115 22,18.427457 22,17 v -7 a 1,1 0 0 0 -1,-1 1,1 0 0 0 -1,1 v 7 c 0,0.716133 -0.379811,1.374355 -1,1.732422 -0.620189,0.358067 -1.379811,0.358067 -2,0 C 16.379811,18.374355 16,17.716133 16,17 V 10 A 1,1 0 0 0 15,9 Z m 12,0 c -2.19729,0 -4,1.80271 -4,4 0,2.19729 1.80271,4 4,4 2.19729,0 4,-1.80271 4,-4 0,-2.19729 -1.80271,-4 -4,-4 z m 6,0 a 1,1 0 0 0 -0.707031,0.292969 1,1 0 0 0 0,1.414062 L 34.585938,13 32.292969,15.292969 a 1,1 0 0 0 0,1.414062 1,1 0 0 0 1.414062,0 L 36,14.414062 l 2.292969,2.292969 a 1,1 0 0 0 1.414062,0 1,1 0 0 0 0,-1.414062 L 37.414062,13 39.707031,10.707031 a 1,1 0 0 0 0,-1.414062 1,1 0 0 0 -1.414062,0 L 36,11.585938 33.707031,9.292969 A 1,1 0 0 0 33,9 Z m 12,0 c -2.19729,0 -4,1.80271 -4,4 0,2.19729 1.80271,4 4,4 2.19729,0 4,-1.80271 4,-4 0,-2.19729 -1.80271,-4 -4,-4 z m 6,0 a 1,1 0 0 0 -1,1 v 7 c 0,1.427456 0.763787,2.751115 2,3.464844 1.236213,0.713727 2.763787,0.713727 4,0 C 57.236213,19.751115 58,18.427456 58,17 v -7 a 1,1 0 0 0 -1,-1 1,1 0 0 0 -1,1 v 7 c 0,0.716132 -0.379812,1.374355 -1,1.732422 -0.620188,0.358067 -1.379812,0.358067 -2,0 C 52.379812,18.374355 52,17.716132 52,17 V 10 A 1,1 0 0 0 51,9 Z m -24,2 c 1.116412,0 2,0.883588 2,2 0,1.116412 -0.883588,2 -2,2 -1.116412,0 -2,-0.883588 -2,-2 0,-1.116412 0.883588,-2 2,-2 z m 18,0 c 1.116412,0 2,0.883588 2,2 0,1.116412 -0.883588,2 -2,2 -1.116412,0 -2,-0.883588 -2,-2 0,-1.116412 0.883588,-2 2,-2 z" />
  <path
     id="path26"
     style="color:#000000;display:inline;fill:#90dad1;fill-opacity:1;stroke-linecap:round;stroke-linejoin:round;-inkscape-stroke:none;paint-order:stroke fill markers"
     d="m 15,8 a 1,1 0 0 0 -1,1 v 7 c 0,1.427457 0.763787,2.751115 2,3.464844 1.236214,0.713728 2.763787,0.713728 4,0 C 21.236214,18.751115 22,17.427457 22,16 V 9 A 1,1 0 0 0 21,8 1,1 0 0 0 20,9 v 7 c 0,0.716133 -0.379811,1.374355 -1,1.732422 -0.620189,0.358067 -1.379811,0.358067 -2,0 C 16.379811,17.374355 16,16.716133 16,16 V 9 A 1,1 0 0 0 15,8 Z m 12,0 c -2.19729,0 -4,1.80271 -4,4 0,2.19729 1.80271,4 4,4 2.19729,0 4,-1.80271 4,-4 0,-2.19729 -1.80271,-4 -4,-4 z m 6,0 a 1,1 0 0 0 -0.707031,0.292969 1,1 0 0 0 0,1.414062 L 34.585938,12 32.292969,14.292969 a 1,1 0 0 0 0,1.414062 1,1 0 0 0 1.414062,0 L 36,13.414062 l 2.292969,2.292969 a 1,1 0 0 0 1.414062,0 1,1 0 0 0 0,-1.414062 L 37.414062,12 39.707031,9.707031 a 1,1 0 0 0 0,-1.414062 1,1 0 0 0 -1.414062,0 L 36,10.585938 33.707031,8.292969 A 1,1 0 0 0 33,8 Z m 12,0 c -2.19729,0 -4,1.80271 -4,4 0,2.19729 1.80271,4 4,4 2.19729,0 4,-1.80271 4,-4 0,-2.19729 -1.80271,-4 -4,-4 z m 6,0 a 1,1 0 0 0 -1,1 v 7 c 0,1.427456 0.763787,2.751115 2,3.464844 1.236213,0.713727 2.763787,0.713727 4,0 C 57.236213,18.751115 58,17.427456 58,16 V 9 A 1,1 0 0 0 57,8 1,1 0 0 0 56,9 v 7 c 0,0.716132 -0.379812,1.374355 -1,1.732422 -0.620188,0.358067 -1.379812,0.358067 -2,0 C 52.379812,17.374355 52,16.716132 52,16 V 9 A 1,1 0 0 0 51,8 Z m -24,2 c 1.116412,0 2,0.883588 2,2 0,1.116412 -0.883588,2 -2,2 -1.116412,0 -2,-0.883588 -2,-2 0,-1.116412 0.883588,-2 2,-2 z m 18,0 c 1.116412,0 2,0.883588 2,2 0,1.116412 -0.883588,2 -2,2 -1.116412,0 -2,-0.883588 -2,-2 0,-1.116412 0.883588,-2 2,-2 z" />
  <path
     id="path29"
     style="color:#000000;fill:#55a097;fill-opacity:1;stroke-linecap:round;stroke-linejoin:round;-inkscape-stroke:none;paint-order:stroke fill markers"
     d="m 70.958664,10.575682 c 0.05063,-0.350218 0.05463,-0.704743 0.01266,-1.053753 C 70.875384,8.724192 70.540632,7.955187 69.980737,7.330238 68.860938,6.080339 67.070722,5.661793 65.513208,6.286569 a 1,1 0 0 0 -0.555193,1.301677 1,1 0 0 0 1.299741,0.554916 c 0.783542,-0.314308 1.670286,-0.105989 2.233627,0.5228 0.563341,0.628789 0.672262,1.532187 0.274067,2.276612 -0.398196,0.744425 -1.210693,1.15659 -2.046414,1.037018 a 1,1 0 0 0 -1.061893,0.59584 1,1 0 0 0 -0.06966,0.252445 1,1 0 0 0 0.848285,1.131553 c 0.835721,0.119573 1.500044,0.743035 1.673516,1.569253 0.173472,0.826218 -0.184403,1.662828 -0.901462,2.108421 -0.71706,0.445593 -1.626643,0.396901 -2.290612,-0.124512 a 1,1 0 0 0 -1.403201,0.168188 1,1 0 0 0 0.167912,1.405135 c 1.319827,1.036457 3.155584,1.136703 4.580944,0.250958 0.712681,-0.442871 1.249635,-1.087159 1.565419,-1.825988 0.315785,-0.738828 0.410195,-1.571615 0.237783,-2.392787 -0.140476,-0.669073 -0.445365,-1.27544 -0.870796,-1.774031 0.548174,-0.35929 1.010862,-0.855836 1.33332,-1.458673 0.222616,-0.416182 0.364972,-0.859433 0.43007,-1.309712 z" />
  <path
     id="path27"
     style="color:#000000;fill:#90dad1;stroke-linecap:round;stroke-linejoin:round;-inkscape-stroke:none;paint-order:stroke fill markers"
     d="m 70.958664,9.575682 c 0.05063,-0.350219 0.05463,-0.704744 0.01266,-1.053753 C 70.875384,7.724192 70.540636,6.955187 69.980741,6.330237 68.860937,5.080339 67.070721,4.661793 65.513207,5.28657 a 1,1 0 0 0 -0.555193,1.301676 1,1 0 0 0 1.299742,0.554915 c 0.783541,-0.314308 1.670286,-0.105988 2.233627,0.522801 0.56334,0.628789 0.672261,1.532186 0.274066,2.276611 -0.398195,0.744426 -1.210692,1.156591 -2.046413,1.037018 a 1,1 0 0 0 -1.061894,0.59584 1,1 0 0 0 -0.06966,0.252445 1,1 0 0 0 0.848285,1.131553 c 0.835721,0.119573 1.500044,0.743035 1.673517,1.569253 0.173471,0.826218 -0.184403,1.662827 -0.901462,2.108421 -0.71706,0.445594 -1.626644,0.3969 -2.290613,-0.124512 a 1,1 0 0 0 -1.403201,0.168188 1,1 0 0 0 0.167911,1.405135 c 1.31983,1.036457 3.155589,1.136704 4.580949,0.250958 0.71268,-0.442872 1.249635,-1.087158 1.565419,-1.825987 0.315784,-0.738829 0.410195,-1.571615 0.237782,-2.392788 -0.140475,-0.669073 -0.445364,-1.27544 -0.870796,-1.774031 0.548175,-0.359291 1.010861,-0.855835 1.33332,-1.458673 0.222617,-0.416181 0.364973,-0.859433 0.430071,-1.309711 z" />
  <path
     id="path11"
     style="color:#000000;fill:#55a097;fill-opacity:1;stroke-linecap:round;stroke-linejoin:round;-inkscape-stroke:none;paint-order:stroke fill markers"
     d="m 1.0413361,10.575682 c -0.05063,-0.350218 -0.05463,-0.704743 -0.01266,-1.053753 0.09594,-0.797737 0.430692,-1.566742 0.990587,-2.191691 1.119799,-1.249899 2.910015,-1.668445 4.467529,-1.043669 a 1,1 0 0 1 0.555193,1.301677 1,1 0 0 1 -1.299741,0.554916 c -0.783542,-0.314308 -1.670286,-0.105989 -2.233627,0.5228 -0.563341,0.628789 -0.672262,1.532187 -0.274067,2.276612 0.398196,0.744425 1.210693,1.15659 2.046414,1.037018 a 1,1 0 0 1 1.061893,0.59584 1,1 0 0 1 0.06966,0.252445 1,1 0 0 1 -0.848285,1.131553 c -0.835721,0.119573 -1.500044,0.743035 -1.673516,1.569253 -0.173472,0.826218 0.184403,1.662828 0.901462,2.108421 0.71706,0.445593 1.626643,0.396901 2.290612,-0.124512 a 1,1 0 0 1 1.403201,0.168188 1,1 0 0 1 -0.167912,1.405135 c -1.319827,1.036457 -3.155584,1.136703 -4.580944,0.250958 -0.712681,-0.442871 -1.249635,-1.087159 -1.565419,-1.825988 -0.315785,-0.738828 -0.410195,-1.571615 -0.237783,-2.392787 0.140476,-0.669073 0.445365,-1.27544 0.870796,-1.774031 -0.548174,-0.35929 -1.010862,-0.855836 -1.33332,-1.458673 -0.222616,-0.416182 -0.364972,-0.859433 -0.43007,-1.309712 z" />
  <path
     id="path12"
     style="color:#000000;fill:#90dad1;stroke-linecap:round;stroke-linejoin:round;-inkscape-stroke:none;paint-order:stroke fill markers"
     d="M 1.0413368,9.575682 C 0.9907058,9.225463 0.9867058,8.870938 1.0286768,8.521929 1.1246168,7.724192 1.4593648,6.955187 2.0192598,6.330237 3.1390638,5.080339 4.9292798,4.661793 6.4867938,5.28657 a 1,1 0 0 1 0.555193,1.301676 1,1 0 0 1 -1.299742,0.554915 c -0.783541,-0.314308 -1.670286,-0.105988 -2.233627,0.522801 -0.56334,0.628789 -0.672261,1.532186 -0.274066,2.276611 0.398195,0.744426 1.210692,1.156591 2.046413,1.037018 a 1,1 0 0 1 1.061894,0.59584 1,1 0 0 1 0.06966,0.252445 1,1 0 0 1 -0.848285,1.131553 c -0.835721,0.119573 -1.500044,0.743035 -1.673517,1.569253 -0.173471,0.826218 0.184403,1.662827 0.901462,2.108421 0.71706,0.445594 1.626644,0.3969 2.290613,-0.124512 a 1,1 0 0 1 1.403201,0.168188 1,1 0 0 1 -0.167911,1.405135 c -1.31983,1.036457 -3.155589,1.136704 -4.580949,0.250958 -0.71268,-0.442872 -1.249635,-1.087158 -1.565419,-1.825987 -0.315784,-0.738829 -0.410195,-1.571615 -0.237782,-2.392788 0.140475,-0.669073 0.445364,-1.27544 0.870796,-1.774031 -0.548175,-0.359291 -1.010861,-0.855835 -1.33332,-1.458673 -0.222617,-0.416181 -0.364973,-0.859433 -0.430071,-1.309711 z" />
</svg>
